<?xml version="1.0" encoding="UTF-8"?>
<svg width="28px" height="36px" viewBox="0 0 28 36" version="1.1" xmlns="http://www.w3.org/2000/svg" xmlns:xlink="http://www.w3.org/1999/xlink">
    <!-- Generator: Sketch 53.2 (72643) - https://sketchapp.com -->
    <title>ic_basic</title>
    <desc>Created with Sketch.</desc>
    <defs>
        <polygon id="path-1" points="0 0.000118681319 27.68788 0.000118681319 27.68788 35.9842154 0 35.9842154"></polygon>
    </defs>
    <g id="Version-4-Prototype" stroke="none" stroke-width="1" fill="none" fill-rule="evenodd">
        <g id="04ShareProof" transform="translate(-166.000000, -142.000000)">
            <g id="ic_basic" transform="translate(166.000000, 142.000000)">
                <mask id="mask-2" fill="white">
                    <use xlink:href="#path-1"></use>
                </mask>
                <g id="Clip-2"></g>
                <path d="M23.56388,16.6016571 C23.34308,16.6016571 23.16388,16.4224484 23.16388,16.2040747 C23.16388,16.0960747 23.18908,16.0042945 23.20708,15.9370418 C23.21268,15.9168659 23.21868,15.8966901 23.22228,15.8761187 C23.26228,15.6609099 23.47108,15.5208659 23.68788,15.5576571 C23.90508,15.596822 24.04908,15.8025363 24.00948,16.0177451 C24.00188,16.0600747 23.99068,16.1016132 23.97948,16.1431516 C23.97348,16.1649099 23.96588,16.1862725 23.96388,16.2084264 C23.96388,16.4268 23.78468,16.6016571 23.56388,16.6016571 M13.81188,16.045833 C13.88868,16.045833 13.96548,16.0675912 14.03228,16.1111077 L16.50668,17.7263604 L16.18988,14.5654813 C16.17748,14.4424484 16.22388,14.3206022 16.31548,14.2363385 L18.44588,12.2804703 L15.24108,12.0371736 C15.09068,12.0257011 14.95948,11.9315473 14.90188,11.7934813 L13.81268,9.17734945 L12.72588,11.7930857 C12.66828,11.9311516 12.53708,12.0257011 12.38668,12.0371736 L9.18188,12.2804703 L11.31228,14.2363385 C11.40388,14.3206022 11.45028,14.4424484 11.43828,14.5654813 L11.12108,17.7255692 L13.59148,16.1111077 C13.65828,16.0675912 13.73508,16.045833 13.81188,16.045833 M10.63988,18.9096132 C10.56868,18.9096132 10.49708,18.8910198 10.43348,18.8530418 C10.30108,18.7743165 10.22668,18.6271516 10.24188,18.4752396 L10.62228,14.6825802 L7.96788,12.2448659 C7.85148,12.1380527 7.80988,11.9730857 7.86228,11.8247341 C7.91468,11.6763824 8.05108,11.5727341 8.20948,11.5604703 L12.07948,11.2669319 L13.44188,7.98737143 C13.50348,7.83901978 13.64948,7.7417011 13.81188,7.7417011 L13.81188,7.7417011 C13.97388,7.7417011 14.12028,7.83862418 14.18188,7.98697582 L15.54788,11.2669319 L19.41868,11.5604703 C19.57708,11.5727341 19.71308,11.6763824 19.76548,11.8247341 C19.81788,11.9730857 19.77668,12.1380527 19.66028,12.2448659 L17.00548,14.6825802 L17.38588,18.4752396 C17.40108,18.6271516 17.32668,18.7739209 17.19468,18.8530418 C17.06268,18.9313714 16.89628,18.927811 16.76748,18.8443385 L13.81228,16.9153714 L10.86068,18.8439429 C10.79388,18.8878549 10.71708,18.9096132 10.63988,18.9096132 M13.84428,23.9780967 C8.10988,23.9780967 3.44428,19.3641626 3.44388,13.6923824 C3.44388,8.0209978 8.10908,3.40666813 13.84348,3.40666813 C19.57828,3.40627253 24.24388,8.02020659 24.24388,13.6919868 C24.24388,13.9103604 24.06468,14.0875912 23.84388,14.0875912 C23.62308,14.0875912 23.44388,13.9103604 23.44388,13.6919868 C23.44388,8.45655824 19.13708,4.19748132 13.84348,4.19787692 C8.55028,4.19787692 4.24388,8.45734945 4.24388,13.6923824 C4.24428,18.9274154 8.55068,23.1868879 13.84428,23.1868879 C17.27228,23.1864923 20.46228,21.3599868 22.16908,18.4198549 C22.27908,18.2303604 22.52308,18.1650857 22.71508,18.2738769 C22.90668,18.3826681 22.97268,18.6243824 22.86308,18.8138769 C21.01388,21.9988879 17.55788,23.9777011 13.84428,23.9780967 M13.84388,0.791327473 C6.65148,0.791327473 0.79988,6.57862418 0.79988,13.6919868 C0.79988,20.8049538 6.65148,26.5922505 13.84388,26.5922505 C16.64668,26.5922505 19.24588,25.7136132 21.37428,24.219811 C21.42828,24.1363385 21.51268,24.0742286 21.61228,24.0493055 C24.81148,21.6958549 26.88788,17.9293055 26.88788,13.6919868 C26.88788,6.57862418 21.03628,0.791327473 13.84388,0.791327473 M13.81188,29.994844 C13.88908,29.994844 13.96628,30.0169978 14.03348,30.0609099 L21.31188,34.8500967 L21.31188,25.2163385 C19.15588,26.5878989 16.59228,27.3834593 13.84388,27.3834593 C11.07028,27.3834593 8.48428,26.5724703 6.31588,25.1775692 L6.31588,34.8497011 L13.59028,30.0613055 C13.65748,30.0169978 13.73468,29.994844 13.81188,29.994844 M21.71188,35.9842945 C21.63428,35.9842945 21.55708,35.9617451 21.49028,35.9182286 L13.81188,30.8655692 L6.13788,35.917833 C6.01468,35.9989319 5.85708,36.0060527 5.72708,35.9372176 C5.59708,35.8683824 5.51588,35.7346681 5.51588,35.5886901 L5.51588,24.6229319 C2.16748,22.1215253 -0.00012,18.1524264 -0.00012,13.6919868 C-0.00012,6.14227253 6.21028,0.000118681319 13.84388,0.000118681319 C21.47748,0.000118681319 27.68788,6.14227253 27.68788,13.6919868 C27.68788,18.1785363 25.49388,22.1686022 22.11188,24.6672396 L22.11188,35.5886901 C22.11188,35.7342725 22.03068,35.8683824 21.90068,35.9372176 C21.84148,35.9688659 21.77668,35.9842945 21.71188,35.9842945" id="Fill-1" fill="#000000" mask="url(#mask-2)"></path>
            </g>
        </g>
    </g>
</svg>