<?xml version="1.0" encoding="UTF-8"?>
<svg width="40px" height="32px" viewBox="0 0 40 32" version="1.1" xmlns="http://www.w3.org/2000/svg">
    <!-- Generator: Sketch 53.2 (72643) - https://sketchapp.com -->
    <title>ic_robust</title>
    <desc>Created with Sketch.</desc>
    <g id="Version-4-Prototype" stroke="none" stroke-width="1" fill="none" fill-rule="evenodd">
        <g id="04ShareProof" transform="translate(-160.000000, -336.000000)" fill="#000000" fill-rule="nonzero">
            <g id="ic_robust" transform="translate(160.000000, 336.000000)">
                <path d="M21,22 C21,18.1401825 17.8598175,15 14,15 L14,15.7857135 C17.4265751,15.7857135 20.2142865,18.5733464 20.2142865,22 L21,22 Z" id="Path"></path>
                <path d="M1.55753463,21.6576718 L8.10674137,21.6576718 L8.10674137,14.0300633 L11.389492,14.0300633 L11.389492,17.1928241 C11.389492,19.2161888 12.2381734,21.1691987 13.7179276,22.551267 C15.2746596,24.0051342 16.1674888,26.0157436 16.1674888,28.0674268 L16.1674888,31.9999198 L16.9701761,31.9999198 L16.9701761,28.0674268 C16.9701761,25.7944105 15.9845563,23.5700891 14.2660828,21.9651635 C12.9481504,20.7342338 12.1922597,18.9948558 12.1922597,17.1929043 L12.1922597,13.0773442 C12.1922597,11.9825517 13.0834835,11.0917642 14.178911,11.0917642 L19.0613374,11.0917642 C19.2636949,11.0917642 19.4284063,11.2563802 19.4284063,11.4586204 C19.4284063,12.4687785 18.6061333,13.2905749 17.5953894,13.2905749 L13.9660383,13.2905749 L13.9660383,14.092797 L17.5953894,14.092797 C18.3113063,14.092797 18.9610817,13.8056817 19.4365937,13.3411149 C19.8192348,13.6847066 20.3196301,13.883016 20.8565477,13.883016 C21.5676485,13.883016 22.1980792,13.5327658 22.5852153,12.9962396 C22.9721106,13.5327658 23.6022202,13.883016 24.3129197,13.883016 C25.1919426,13.883016 25.9481544,13.3483349 26.2731625,12.5875876 L27.0236753,12.5875876 L27.0236753,20.3790099 C27.0236753,21.107588 26.7932237,21.8004673 26.3573645,22.3822388 C25.5681622,23.4348345 25.1510056,24.6522868 25.1510056,25.9031116 L25.1510056,32 L25.953693,32 L25.953693,25.9031116 C25.953693,24.8271713 26.3153839,23.7760196 26.9998354,22.863171 C27.5405257,22.1414117 27.8263627,21.282312 27.8263627,20.3790099 L27.8263627,12.5875876 L31.8932586,12.5875876 L31.8932586,13.2279213 L28.9164121,13.2279213 L28.9164121,14.0301435 L31.8932586,14.0301435 L31.8932586,21.657752 L38.4424654,21.657752 L38.4424654,16.8208337 L40,14.9064108 L40,6.75134122 L38.4424654,4.83691826 L38.4424654,0 L31.8932586,0 L31.8932586,9.07016436 L26.4430915,9.07016436 L26.4430915,6.95775298 C26.4430915,6.38953902 26.2213892,5.85509862 25.8193231,5.45318532 C25.4178189,5.05055002 24.882908,4.82889604 24.3129999,4.82889604 C23.8068253,4.82889604 23.3416679,5.00674869 22.9758833,5.30276867 C22.9272404,4.81485715 22.7136453,4.36304564 22.3624695,4.013357 C21.9600021,3.61104259 21.4251715,3.38954905 20.8565477,3.38954905 C20.1460891,3.38954905 19.5163006,3.73955858 19.129325,4.27592431 C19.0625414,4.18358854 18.9882928,4.09558477 18.9060173,4.01343722 C18.5034696,3.61112281 17.9690403,3.38962927 17.401139,3.38962927 C16.3000124,3.38962927 15.39129,4.22899431 15.2821246,5.30124445 C14.905022,4.99535714 14.4380988,4.82897626 13.9447671,4.82897626 C12.7701946,4.82897626 11.8146755,5.78394152 11.8146755,6.9578332 L11.8146755,9.47135566 L12.6173629,9.47135566 L12.6173629,6.9578332 C12.6173629,6.22636704 13.2127964,5.63119842 13.9447671,5.63119842 C14.2997154,5.63119842 14.6327504,5.76918063 14.8830284,6.02011572 C15.1333063,6.27016837 15.2710475,6.60325101 15.2710475,6.9578332 L16.0737349,6.9578332 L16.0737349,5.51840598 C16.0737349,4.78693982 16.6691684,4.19185143 17.401139,4.19185143 C17.7546425,4.19185143 18.0874367,4.32999408 18.3383568,4.58076873 C18.5892769,4.83154338 18.7274997,5.16454579 18.7274997,5.51840598 L18.7274997,6.5595299 L19.5301871,6.5595299 L19.5301871,5.51840598 C19.5301871,4.78693982 20.1252192,4.19185143 20.8564675,4.19185143 C21.2106934,4.19185143 21.5438087,4.32991386 21.7952104,4.58125006 C22.0458094,4.83082138 22.1838716,5.16374357 22.1838716,5.51848621 L22.1838716,6.95791342 L22.986559,6.95791342 C22.986559,6.22644726 23.5815109,5.63127864 24.3128394,5.63127864 C24.6677878,5.63127864 25.0008228,5.76926085 25.2511007,6.02019594 C25.5020208,6.27097059 25.6402435,6.60397301 25.6402435,6.95791342 L25.6402435,11.7552821 C25.6402435,12.4861867 25.0447298,13.080874 24.3128394,13.080874 C23.5815109,13.080874 22.986559,12.4861867 22.986559,11.7552821 L22.986559,8.57768017 L22.1838716,8.57768017 L22.1838716,11.7552821 C22.1838716,12.4861867 21.5883578,13.080874 20.8564675,13.080874 C20.4978267,13.080874 20.1653536,12.9389609 19.9214972,12.6956469 C20.1187977,12.3265445 20.2310134,11.9055383 20.2310134,11.4587006 C20.2310134,10.9808169 19.9422065,10.5694373 19.5301871,10.3883758 L19.5301871,7.68649158 L18.7274997,7.68649158 L18.7274997,10.289542 L16.0737349,10.289542 L16.0737349,8.56917662 L15.2710475,8.56917662 L15.2710475,10.289542 L14.1788307,10.289542 C13.1070825,10.289542 12.1752427,10.8970649 11.7083195,11.7853655 L8.10674137,11.7853655 L8.10674137,9.87246673 L10.7566533,9.87246673 L10.7566533,9.07024458 L8.10674137,9.07024458 L8.10674137,0 L1.55753463,0 L1.55753463,4.83691826 L0,6.75134122 L0,14.9063305 L1.55753463,16.8207535 L1.55753463,21.6576718 Z M39.1973126,7.03637075 L39.1973126,14.6213812 L38.4424654,15.5492314 L38.4424654,6.10844038 L39.1973126,7.03637075 Z M32.695946,0.802222155 L34.7665584,0.802222155 L34.7665584,18.1842905 L35.5692458,18.1842905 L35.5692458,0.802222155 L37.639778,0.802222155 L37.639778,3.85026523 L37.639778,17.8074065 L37.639778,20.8554496 L35.5692458,20.8554496 L35.5692458,19.3329122 L34.7665584,19.3329122 L34.7665584,20.8554496 L32.695946,20.8554496 L32.695946,12.5875074 L32.695946,9.07016436 L32.695946,0.802222155 Z M31.8932586,9.87238651 L31.8932586,11.7852852 L26.4422888,11.7852852 C26.4424493,11.7751772 26.4430915,11.7652297 26.4430915,11.7551217 L26.4430915,9.87238651 L31.8932586,9.87238651 Z M11.4334793,12.5875074 C11.4050642,12.746588 11.389492,12.9100809 11.389492,13.077264 L11.389492,13.2278411 L8.10674137,13.2278411 L8.10674137,12.5875074 L11.4334793,12.5875074 Z M2.36022202,0.802222155 L4.43075416,0.802222155 L4.43075416,2.32475958 L5.23344156,2.32475958 L5.23344156,0.802222155 L7.30405397,0.802222155 L7.30405397,9.07016436 L7.30405397,12.5875074 L7.30405397,20.8555298 L5.23344156,20.8554496 L5.23344156,3.47346149 L4.43075416,3.47346149 L4.43075416,20.8555298 L2.36022202,20.8555298 L2.36022202,17.8074867 L2.36022202,3.85026523 L2.36022202,0.802222155 Z M0.802687397,14.621301 L0.802687397,7.03629052 L1.55753463,6.1085206 L1.55753463,15.5491511 L0.802687397,14.621301 Z" id="Shape"></path>
            </g>
        </g>
    </g>
</svg>