<svg width="1000" height="1000" viewBox="0 0 1000 1000" fill="none" xmlns="http://www.w3.org/2000/svg">
<path d="M873.412 168.391C829.829 118.957 776.913 78.6911 717.727 49.9245C658.54 21.158 594.258 4.46163 528.601 0.80186C518.777 0 509.272 0 499.687 0C373.705 0.160827 252.42 48.03 160.058 134.046C67.697 220.062 11.0586 337.892 1.45628 464.001C-8.146 590.11 29.9948 715.214 108.26 814.324C186.526 913.434 299.154 979.254 423.649 998.637V860.236V699.864C446.612 709.79 471.132 715.598 496.093 717.023C500.247 717.023 504.08 717.023 508.473 717.023C563.276 715.115 615.297 692.32 653.953 653.274C692.61 614.229 714.999 561.866 716.566 506.838C718.133 451.81 698.76 398.249 662.388 357.05C626.017 315.851 575.379 290.11 520.774 285.061C516.62 285.061 512.787 285.061 508.314 285.061C479.201 285.045 450.392 290.994 423.649 302.542V272.633H273.328V789.031C214.054 741.84 170.872 677.304 149.77 604.371C128.667 531.438 130.689 453.72 155.555 381.993C180.421 310.265 226.9 248.08 288.547 204.06C350.195 160.04 423.957 136.364 499.608 136.316C506.636 136.316 513.665 136.316 520.774 136.958C609.663 142.054 693.621 179.633 756.809 242.605C819.996 305.576 858.043 389.586 863.772 478.784C869.5 567.982 842.515 656.201 787.906 726.797C733.297 797.394 654.841 845.485 567.34 862V1000C657.218 987.684 742.071 951.069 812.819 894.071C883.567 837.074 937.548 761.839 968.988 676.416C1000.43 590.993 1008.14 498.596 991.308 409.11C974.473 319.624 933.721 236.417 873.412 168.391V168.391ZM428.92 497.153C430.156 476.842 439.038 457.763 453.766 443.782C468.493 429.8 487.965 421.963 508.234 421.859H512.866C532.572 424.327 550.654 434.077 563.587 449.205C576.52 464.333 583.375 483.755 582.817 503.683C582.258 523.611 574.325 542.616 560.566 556.99C546.806 571.364 528.206 580.077 508.394 581.429H503.761C482.621 580.129 462.861 570.453 448.826 554.528C434.791 538.604 427.631 517.735 428.92 496.512V497.153Z" fill="#2DB34B"/>
</svg>
