<?xml version="1.0" encoding="UTF-8"?>
<svg width="18px" height="18px" viewBox="0 0 18 18" version="1.1" xmlns="http://www.w3.org/2000/svg">
    <!-- Generator: Sketch 53.2 (72643) - https://sketchapp.com -->
    <title>ic_identity</title>
    <desc>Created with Sketch.</desc>
    <g id="Version-4-Prototype" stroke="none" stroke-width="1" fill="none" fill-rule="evenodd">
        <g id="02Learn00" transform="translate(-169.000000, -1068.000000)" fill="#000000">
            <g id="ic_identity" transform="translate(169.000000, 1068.000000)">
                <path d="M9,1.00125 C13.4175876,1.00125 16.99875,4.58241236 16.99875,9 L16.99875,9 C16.9987499,13.4175876 13.4175876,16.9987499 9,16.9987499 C4.5824124,16.9987499 1.00125007,13.4175876 1.00125,9 L1.00125,9 C1.00125,4.58241236 4.58241236,1.00125 9,1.00125 L9,1.00125 Z M9,0 C4.02943725,-3.04359188e-16 6.08718376e-16,4.02943725 0,9 C-6.08718376e-16,13.9705627 4.02943725,18 9,18 C13.9705627,18 18,13.9705627 18,9 C18,6.61305159 17.0517884,4.32386638 15.363961,2.63603897 C13.6761336,0.948211563 11.3869484,1.46158436e-16 9,0 Z" id="Shape" fill-rule="nonzero"></path>
                <path d="M9.23076923,11.0769231 C7.191564,11.0769231 5.53846154,9.42382061 5.53846154,7.38461538 C5.53846154,5.34541015 7.191564,3.69230769 9.23076923,3.69230769 C11.2699745,3.69230769 12.9230769,5.34541015 12.9230769,7.38461538 C12.9214787,9.42315824 11.2693121,11.0753248 9.23076923,11.0769231 Z M9.23076923,4.73565994 C7.75978838,4.73565994 6.56732279,5.92812554 6.56732279,7.39910639 C6.56732279,8.87008724 7.75978838,10.0625528 9.23076923,10.0625528 C10.7017501,10.0625528 11.8942157,8.87008724 11.8942157,7.39910639 C11.8926184,5.92878767 10.7010879,4.73725725 9.23076923,4.73565994 Z" id="Shape" fill-rule="nonzero"></path>
                <path d="M13.8119169,14.7689183 C13.6660937,14.7690343 13.5276284,14.7022723 13.4334168,14.5864219 C12.3068038,13.2750753 10.6899479,12.535572 8.9999555,12.5586844 C7.30996314,12.535572 5.6931072,13.2750753 4.56649425,14.5864219 C4.45214952,14.7271705 4.27434891,14.7937335 4.10006818,14.7610375 C3.92578746,14.7283415 3.78150402,14.6013537 3.72156803,14.4279092 C3.66163205,14.2544647 3.69514922,14.0609138 3.80949396,13.9201653 C5.12686365,12.3817547 7.02019693,11.5131812 8.9999555,11.5390222 C10.9797141,11.5131812 12.8730474,12.3817547 14.190417,13.9201653 C14.3150931,14.0734772 14.342887,14.2881927 14.2616398,14.4703823 C14.1803926,14.6525719 14.0048937,14.7690719 13.8119169,14.7689183 L13.8119169,14.7689183 Z" id="Path"></path>
            </g>
        </g>
    </g>
</svg>