<?xml version="1.0" encoding="UTF-8"?>
<svg width="21px" height="25px" viewBox="0 0 21 25" version="1.1" xmlns="http://www.w3.org/2000/svg">
    <!-- Generator: Sketch 53.2 (72643) - https://sketchapp.com -->
    <title>ic_locale</title>
    <desc>Created with Sketch.</desc>
    <g id="Version-4-Prototype" stroke="none" stroke-width="1" fill="none" fill-rule="evenodd">
        <g id="02Learn00" transform="translate(-168.000000, -525.000000)" fill="#000000" fill-rule="nonzero">
            <path d="M186.611694,525.542161 C186.440796,525.373788 186.16394,525.373788 185.993042,525.542161 L183.937107,527.567712 C180.24036,524.250899 174.499027,524.340426 170.92984,527.856866 C169.14801,529.612364 168.166626,531.94538 168.166626,534.426143 C168.166626,536.762317 169.046272,538.95995 170.635387,540.672855 L168.580414,542.697459 C168.409515,542.865832 168.409515,543.138596 168.580414,543.306969 C168.665863,543.391155 168.777801,543.433249 168.88974,543.433249 C169.001678,543.433249 169.113617,543.391155 169.199066,543.306969 L169.965492,542.551869 C171.998917,544.406575 174.563381,545.38369 177.157379,545.482399 L177.157379,546.594554 C175.20668,546.754061 173.684723,547.964741 173.684723,549.43111 C173.684723,549.669147 173.880615,549.862145 174.122223,549.862145 L181.067535,549.862145 C181.309143,549.862145 181.505035,549.669147 181.505035,549.43111 C181.505035,547.964741 179.983078,546.754061 178.032379,546.594554 L178.032379,545.482399 C180.762749,545.378534 183.461796,544.303973 185.541657,542.254849 C189.819538,538.039977 189.918446,531.245949 185.843132,526.908875 L186.611694,526.15167 C186.782593,525.983297 186.782593,525.710533 186.611694,525.542161 Z M169.041626,534.426143 C169.041626,532.17563 169.932007,530.058973 171.548492,528.466376 C173.214966,526.82453 175.404175,526.003923 177.594452,526.003923 C179.784302,526.003923 181.975433,526.824951 183.643402,528.466165 C186.975922,531.753856 186.976135,537.099483 183.643616,540.382754 C182.02713,541.97535 179.878723,542.852362 177.594452,542.852362 C175.310181,542.852362 173.163055,541.97535 171.548279,540.382543 C169.932007,538.792051 169.041626,536.676657 169.041626,534.426143 Z M180.555267,549.000076 L174.634491,549.000076 C174.943604,548.118433 176.174072,547.437576 177.594879,547.437576 C179.015686,547.437576 180.246155,548.118433 180.555267,549.000076 Z M184.923004,541.645339 C180.986519,545.52365 174.652676,545.612125 170.591969,541.934651 L171.254066,541.282338 C172.993011,542.84789 175.223396,543.714431 177.594452,543.714431 C180.112427,543.714431 182.480438,542.747761 184.262268,540.992263 C187.831322,537.475954 187.922112,531.819968 184.555733,528.177248 L185.216656,527.526093 C188.949291,531.526605 188.859062,537.767239 184.923004,541.645339 Z" id="ic_locale"></path>
        </g>
    </g>
</svg>