<?xml version="1.0" encoding="UTF-8"?>
<svg width="18px" height="19px" viewBox="0 0 18 19" version="1.1" xmlns="http://www.w3.org/2000/svg">
    <!-- Generator: Sketch 53.2 (72643) - https://sketchapp.com -->
    <title>ic_language</title>
    <desc>Created with Sketch.</desc>
    <g id="Version-4-Prototype" stroke="none" stroke-width="1" fill="none" fill-rule="evenodd">
        <g id="02Learn00" transform="translate(-169.000000, -1459.000000)" fill="#000000" fill-rule="nonzero">
            <path d="M178,1459.1405 C182.966125,1459.1405 187,1463.31157 187,1468.44661 C187,1473.49522 183.096887,1477.6034 178.246075,1477.74059 C178.163425,1477.74951 178.08445,1477.75261 178,1477.75261 C177.91555,1477.75261 177.836575,1477.74873 177.753925,1477.74059 C172.903112,1477.6034 169,1473.49522 169,1468.44661 C169,1463.31157 173.033875,1459.1405 178,1459.1405 L178,1459.1405 Z M178.375,1459.97659 L178.375,1463.4058 L181,1463.4058 C180.870962,1463.01333 180.733562,1462.63914 180.578125,1462.30312 C179.959487,1460.96558 179.17645,1460.17004 178.375,1459.97659 Z M177.625,1459.97659 C176.82355,1460.17004 176.040512,1460.96558 175.421875,1462.30312 C175.266437,1462.63914 175.129037,1463.01333 175,1463.4058 L177.625,1463.4058 L177.625,1459.97659 Z M180.109375,1460.20682 C180.54445,1460.67582 180.934375,1461.26458 181.257812,1461.96384 C181.461812,1462.40492 181.650512,1462.88861 181.808575,1463.4058 L184.65625,1463.4058 C183.55615,1461.85556 181.959737,1460.71063 180.109375,1460.20682 L180.109375,1460.20682 Z M175.890625,1460.20682 C174.040262,1460.71063 172.44385,1461.85556 171.34375,1463.4058 L174.191425,1463.4058 C174.349487,1462.88861 174.538187,1462.40492 174.742187,1461.96384 C175.065625,1461.26458 175.45555,1460.67582 175.890625,1460.20682 Z M185.1367,1464.18131 L182.01955,1464.18131 C182.305412,1465.35235 182.461225,1466.66823 182.4883,1468.05885 L186.2383,1468.05885 C186.176913,1466.64769 185.78125,1465.3319 185.1367,1464.18131 Z M181.222675,1464.18131 L178.375,1464.18131 L178.375,1468.05885 L181.7383,1468.05885 C181.70905,1466.65199 181.5211,1465.32997 181.222675,1464.18131 Z M177.625,1464.18131 L174.777325,1464.18131 C174.4789,1465.32997 174.290912,1466.65199 174.2617,1468.05885 L177.625,1468.05885 L177.625,1464.18131 Z M173.98045,1464.18131 L170.8633,1464.18131 C170.21875,1465.3319 169.823087,1466.64769 169.7617,1468.05885 L173.5117,1468.05885 C173.5387,1466.66823 173.694587,1465.35235 173.98045,1464.18131 Z M186.2383,1468.83436 L182.4883,1468.83436 C182.461675,1470.22621 182.30575,1471.54268 182.01955,1472.71191 L185.148438,1472.71191 C185.789875,1471.56175 186.178638,1470.24373 186.2383,1468.83436 Z M181.7383,1468.83436 L178.375,1468.83436 L178.375,1472.71191 L181.222675,1472.71191 C181.521475,1471.56509 181.709425,1470.24249 181.7383,1468.83436 Z M177.625,1468.83436 L174.2617,1468.83436 C174.290575,1470.24249 174.478525,1471.56509 174.777325,1472.71191 L177.625,1472.71191 L177.625,1468.83436 Z M173.5117,1468.83436 L169.7617,1468.83436 C169.821362,1470.24373 170.210125,1471.56175 170.851562,1472.71191 L173.98045,1472.71191 C173.69425,1471.54268 173.538475,1470.22621 173.5117,1468.83436 Z M184.65625,1473.48742 L181.808575,1473.48742 C181.650512,1474.00337 181.461812,1474.4762 181.257812,1474.91727 C180.931525,1475.62271 180.537475,1476.22532 180.097675,1476.6985 C181.955837,1476.19547 183.553787,1475.04472 184.65625,1473.48742 L184.65625,1473.48742 Z M181,1473.48742 L178.375,1473.48742 L178.375,1476.92875 C179.176487,1476.73293 179.95945,1475.91558 180.578125,1474.57798 C180.733562,1474.24196 180.870962,1473.87898 181,1473.48742 Z M177.625,1473.48742 L175,1473.48742 C175.129037,1473.87898 175.266437,1474.24196 175.421875,1474.57798 C176.04055,1475.91558 176.823512,1476.73293 177.625,1476.92875 L177.625,1473.48742 Z M174.191425,1473.48742 L171.34375,1473.48742 C172.446212,1475.04472 174.044162,1476.19547 175.902325,1476.6985 C175.462525,1476.22532 175.068475,1475.62271 174.742187,1474.91727 C174.538187,1474.4762 174.349487,1474.00337 174.191425,1473.48742 Z" id="ic_language"></path>
        </g>
    </g>
</svg>