<?xml version="1.0" encoding="UTF-8"?>
<svg width="56px" height="56px" viewBox="0 0 56 56" version="1.1" xmlns="http://www.w3.org/2000/svg" xmlns:xlink="http://www.w3.org/1999/xlink">
    <!-- Generator: Sketch 53.2 (72643) - https://sketchapp.com -->
    <title>ic_modifications</title>
    <desc>Created with Sketch.</desc>
    <g id="Version-4-Prototype" stroke="none" stroke-width="1" fill="none" fill-rule="evenodd">
        <g id="02Learn00" transform="translate(-151.000000, -179.000000)">
            <g id="ic_modifications" transform="translate(151.000000, 179.000000)">
                <circle id="Oval-Copy-6" fill="#F7F7F7" cx="28" cy="28" r="28"></circle>
                <path d="M23.0860279,22.5212731 L21.5215458,24.0860588 C21.3594847,24.2481513 21.3594847,24.5114528 21.5215458,24.6735454 L24.8473549,28 L27,25.8477277 L23.6741909,22.5212731 C23.5113393,22.3599712 23.2480889,22.3591805 23.0860279,22.5212731 Z" id="Shape" fill="#000000" fill-rule="nonzero"></path>
                <path d="M38.6400642,37.51661 L28.324313,27.2 L26.2,29.3243292 L36.5165314,39.6401591 C36.9963156,40.119947 37.7748923,40.119947 38.2554567,39.6401591 L38.6408444,39.2547685 C39.1198485,38.7742004 39.1198485,37.9956178 38.6400642,37.51661 Z" id="Shape" fill="#000000" fill-rule="nonzero"></path>
                <path d="M27.0907183,22.8420821 L29.1013551,23.2338967 C29.2223128,23.2582424 29.3409883,23.3761672 29.365332,23.497896 L29.7571133,25.5087034 C29.7799355,25.6304322 29.8187332,25.6304322 29.8423162,25.5087034 L30.2340975,23.497896 C30.2576804,23.3761672 30.3771167,23.2590032 30.4988351,23.2338967 L32.5087112,22.8420821 C32.6304296,22.8184972 32.6304296,22.7804569 32.5087112,22.7561112 L30.4988351,22.3658182 C30.3771167,22.3414725 30.2584412,22.2227869 30.2340975,22.1010581 L29.8423162,20.0910115 C29.8187332,19.9700435 29.7799355,19.9692827 29.7571133,20.0910115 L29.365332,22.1010581 C29.341749,22.2227869 29.2223128,22.3414725 29.1013551,22.3658182 L27.0907183,22.7553504 C26.9697606,22.7796961 26.9697606,22.8184972 27.0907183,22.8420821 Z" id="Shape" fill="#000000" fill-rule="nonzero"></path>
                <path d="M26.9092817,33.956686 L24.8986449,33.5656721 C24.7776872,33.5420895 24.6590117,33.4226553 24.634668,33.3016997 L24.2428867,31.2910971 C24.2193038,31.1693807 24.180506,31.1701414 24.1576838,31.2903364 L23.7659025,33.3009389 C23.7423196,33.4226553 23.6228833,33.5413288 23.5019256,33.5656721 L21.4912888,33.956686 C21.3695704,33.9802685 21.3695704,34.0198263 21.4912888,34.0426482 L23.5019256,34.4336621 C23.6228833,34.4572446 23.7415588,34.5766788 23.7659025,34.6983952 L24.1576838,36.7089978 C24.180506,36.8299534 24.2193038,36.8307141 24.2428867,36.7089978 L24.634668,34.6983952 C24.658251,34.5766788 24.7776872,34.4580053 24.8986449,34.4336621 L26.9092817,34.0426482 C27.0302394,34.0198263 27.0302394,33.9802685 26.9092817,33.956686 Z" id="Shape" fill="#000000" fill-rule="nonzero"></path>
                <path d="M20.5087465,25.9566951 L18.4978055,25.5656894 C18.3758538,25.5429859 18.2581074,25.4227412 18.2345581,25.3016555 L17.8426307,23.2911298 C17.8190814,23.1692033 17.7803933,23.1700442 17.7560029,23.2911298 L17.3657576,25.3016555 C17.3422083,25.423582 17.2227797,25.542145 17.1016691,25.5656894 L15.0907281,25.9566951 C14.9696175,25.9802395 14.9696175,26.0189196 15.0915692,26.0424641 L17.1016691,26.4343106 C17.2236208,26.457855 17.3422083,26.576418 17.3657576,26.6975036 L17.756844,28.7088702 C17.7803933,28.8307967 17.8190814,28.8299558 17.8434717,28.7088702 L18.2353991,26.6975036 C18.2581074,26.5755771 18.3766949,26.457855 18.4986465,26.4343106 L20.5095876,26.0416232 C20.6298571,26.0189196 20.6306982,25.9793986 20.5087465,25.9566951 Z" id="Shape" fill="#000000" fill-rule="nonzero"></path>
                <path d="M21.842472,21.5091619 L22.2343921,19.4981075 C22.257941,19.3769901 22.3765262,19.2575548 22.4976346,19.2340042 L24.508538,18.8437369 C24.6304873,18.8193451 24.6304873,18.7814959 24.508538,18.7571042 L22.4984756,18.3659958 C22.3756852,18.3424452 22.257941,18.223851 22.2343921,18.1018925 L21.842472,16.0908381 C21.8197642,15.9697206 21.7810768,15.9697206 21.7566869,16.0908381 L21.3656079,18.1018925 C21.341218,18.223851 21.2226327,18.3424452 21.1015244,18.3651547 L19.091462,18.7579453 C18.9695127,18.7814959 18.9695127,18.8201862 19.091462,18.844578 L21.1023654,19.2348453 C21.2243148,19.2583959 21.342059,19.3769901 21.3664489,19.4989486 L21.757528,21.5091619 C21.7810768,21.6302794 21.8197642,21.6302794 21.842472,21.5091619 Z" id="Shape" fill="#000000" fill-rule="nonzero"></path>
            </g>
        </g>
    </g>
</svg>