<?xml version="1.0" encoding="UTF-8"?>
<svg width="26px" height="26px" viewBox="0 0 26 26" version="1.1" xmlns="http://www.w3.org/2000/svg" xmlns:xlink="http://www.w3.org/1999/xlink">
    <!-- Generator: Sketch 53.2 (72643) - https://sketchapp.com -->
    <title>ic_more</title>
    <desc>Created with Sketch.</desc>
    <g id="Version-4-Prototype" stroke="none" stroke-width="1" fill="none" fill-rule="evenodd">
        <g id="02Learn00" transform="translate(-167.000000, -824.000000)" fill="#12100B">
            <g id="ic_more" transform="translate(167.000000, 824.000000)">
                <path d="M13,0 C5.80666667,0 0,5.80666667 0,13 C0,20.1933333 5.80666667,26 13,26 C20.1933333,26 26,20.1933333 26,13 C26,5.80666667 20.1933333,0 13,0 Z M13,25.1034483 C6.31889655,25.1034483 0.896551724,19.6811034 0.896551724,13 C0.896551724,6.31889655 6.31889655,0.896551724 13,0.896551724 C19.6811034,0.896551724 25.1034483,6.31889655 25.1034483,13 C25.1034483,19.6811034 19.6811034,25.1034483 13,25.1034483 Z" id="Shape" fill-rule="nonzero"></path>
                <rect id="Rectangle" x="10.1111111" y="15.1666667" width="5.77777778" height="1.44444444"></rect>
                <rect id="Rectangle" x="11.5555556" y="18.0555556" width="2.88888889" height="1.44444444"></rect>
                <polygon id="Path" points="5.77777778 15.1666667 8.66666667 13 5.77777778 10.8333333"></polygon>
                <rect id="Rectangle" x="11.5555556" y="6.5" width="2.88888889" height="1.44444444"></rect>
                <rect id="Rectangle" x="11.5555556" y="12.2777778" width="2.88888889" height="1.44444444"></rect>
                <polygon id="Path" points="20.2222222 15.1666667 20.2222222 10.8333333 17.3333333 13"></polygon>
                <rect id="Rectangle" x="10.1111111" y="9.38888889" width="5.77777778" height="1.44444444"></rect>
            </g>
        </g>
    </g>
</svg>