<?xml version="1.0" encoding="UTF-8"?>
<svg width="57px" height="57px" viewBox="0 0 57 57" version="1.1" xmlns="http://www.w3.org/2000/svg">
    <!-- Generator: Sketch 53.2 (72643) - https://sketchapp.com -->
    <title>ic_network</title>
    <desc>Created with Sketch.</desc>
    <g id="Version-4-Prototype" stroke="none" stroke-width="1" fill="none" fill-rule="evenodd">
        <g id="02Learn00" transform="translate(-150.000000, -1585.000000)">
            <g id="ic_network" transform="translate(150.000000, 1585.000000)">
                <circle id="Oval-Copy-10" fill="#F7F7F7" cx="28.5" cy="28.5" r="28.5"></circle>
                <path d="M16.8030393,21 C16.3022372,21 16,21.3365714 16,21.8173393 C16,22.0480536 16.1040101,22.2689286 16.2644154,22.4229643 L20.8,26.5286607 L20.8,39.1731607 C20.7905445,39.60575 21.177881,40 21.6030393,40 C22.0187421,40 22.4060785,39.60575 22.3969607,39.1728214 L22.3969607,26.5286607 L26.9322077,22.4229643 C27.0929506,22.2689286 27.1969607,22.0382143 27.1969607,21.8173393 C27.1969607,21.39425 26.7528915,21 26.4030393,21 L16.8030393,21 L16.8030393,21 Z M18.9102575,22.6343393 L24.2961587,22.6343393 L21.6030393,25.0670179 L18.9102575,22.6343393 L18.9102575,22.6343393 Z M39.196623,26.4326429 C38.7620093,26.4326429 38.4027016,26.7980536 38.4027016,27.2499821 L38.4027016,39.1826607 C38.4027016,39.6345893 38.7616716,40 39.196623,40 C39.6406923,40 40,39.6345893 40,39.1826607 L40,27.2499821 C40,26.7980536 39.64103,26.4326429 39.196623,26.4326429 L39.196623,26.4326429 Z M33.3288307,31.8554464 C32.894217,31.8554464 32.5352469,32.2208571 32.5352469,32.6727857 L32.5352469,39.1826607 C32.5352469,39.6345893 32.894217,40 33.3288307,40 C33.7729,40 34.1322077,39.6345893 34.1322077,39.1826607 L34.1322077,32.6727857 C34.1322077,32.2208571 33.7732377,31.8554464 33.3288307,31.8554464 L33.3288307,31.8554464 Z M27.4708316,34.5768571 C27.0267623,34.5768571 26.6677923,34.9327679 26.6677923,35.3846964 L26.6677923,39.1826607 C26.6677923,39.6345893 27.0267623,40 27.4708316,40 C27.9054453,40 28.2644154,39.6345893 28.2644154,39.1826607 L28.2644154,35.3843571 C28.2644154,34.9324286 27.9054453,34.5768571 27.4708316,34.5768571 L27.4708316,34.5768571 Z" id="Shape" fill="#000000" fill-rule="nonzero"></path>
            </g>
        </g>
    </g>
</svg>