<?xml version="1.0" encoding="UTF-8"?>
<svg width="21px" height="23px" viewBox="0 0 21 23" version="1.1" xmlns="http://www.w3.org/2000/svg" xmlns:xlink="http://www.w3.org/1999/xlink">
    <!-- Generator: Sketch 53.2 (72643) - https://sketchapp.com -->
    <title>ic_notary</title>
    <desc>Created with Sketch.</desc>
    <g id="Version-4-Prototype" stroke="none" stroke-width="1" fill="none" fill-rule="evenodd">
        <g id="02Learn00" transform="translate(-169.000000, -1204.000000)" fill="#0C0C0C" fill-rule="nonzero">
            <path d="M189.070556,1218.95 L183,1218.95 L183,1216.65 L181.444444,1216.65 L181.444444,1214.258 C181.444444,1213.43767 181.802222,1212.66717 182.405,1212.1995 C183.525,1211.31783 184.166667,1210.00683 184.166667,1208.6 C184.166667,1206.06233 182.074444,1204 179.5,1204 C179.317222,1204 179.134444,1204.0115 178.951667,1204.03067 C176.871111,1204.2645 175.156111,1205.91667 174.876111,1207.95983 C174.654444,1209.5775 175.288333,1211.153 176.567778,1212.17267 C177.186111,1212.66333 177.555556,1213.46833 177.555556,1214.32317 L177.555556,1216.65 L176,1216.65 L176,1218.95 L169.929444,1218.95 C169.416111,1218.95 169,1219.36017 169,1219.86617 L169,1224.171 C169,1224.67317 169.416111,1225.08333 169.929444,1225.08333 L170.201667,1225.08333 C170.388333,1226.16817 171.345,1227 172.5,1227 L186.5,1227 C187.655,1227 188.611667,1226.16817 188.798333,1225.08333 L189.070556,1225.08333 C189.583889,1225.08333 190,1224.67317 190,1224.16717 L190,1219.86617 C190,1219.36017 189.583889,1218.95 189.070556,1218.95 Z M177.057778,1211.5785 C175.988333,1210.7275 175.463333,1209.4165 175.646111,1208.06333 C175.879444,1206.36133 177.306667,1204.98517 179.041111,1204.78967 C179.192778,1204.77433 179.348333,1204.76667 179.5,1204.76667 C181.642778,1204.76667 183.388889,1206.48783 183.388889,1208.6 C183.388889,1209.773 182.852222,1210.8655 181.918889,1211.59767 C181.121667,1212.2225 180.666667,1213.19233 180.666667,1214.258 L180.666667,1216.65 L178.333333,1216.65 L178.333333,1214.327 C178.333333,1213.22683 177.866667,1212.2225 177.057778,1211.5785 Z M176.777778,1217.41667 L177.555556,1217.41667 L181.444444,1217.41667 L182.222222,1217.41667 L182.222222,1218.95 L176.777778,1218.95 L176.777778,1217.41667 Z M186.5,1226.23333 L172.5,1226.23333 C171.776667,1226.23333 171.166111,1225.74267 170.995,1225.08333 L188.008889,1225.08333 C187.833889,1225.74267 187.223333,1226.23333 186.5,1226.23333 Z M189.222222,1224.16717 C189.222222,1224.24767 189.156111,1224.31667 189.070556,1224.31667 L188.833333,1224.31667 L170.166667,1224.31667 L169.929444,1224.31667 C169.843889,1224.31667 169.777778,1224.2515 169.777778,1224.16717 L169.777778,1219.86617 C169.777778,1219.78183 169.843889,1219.71667 169.929444,1219.71667 L176,1219.71667 L183,1219.71667 L189.070556,1219.71667 C189.152222,1219.71667 189.222222,1219.78183 189.222222,1219.86617 L189.222222,1224.16717 Z" id="ic_notary"></path>
        </g>
    </g>
</svg>