<?xml version="1.0" encoding="UTF-8"?>
<svg width="23px" height="19px" viewBox="0 0 23 19" version="1.1" xmlns="http://www.w3.org/2000/svg" xmlns:xlink="http://www.w3.org/1999/xlink">
    <!-- Generator: Sketch 53.2 (72643) - https://sketchapp.com -->
    <title>ic_network-type</title>
    <desc>Created with Sketch.</desc>
    <g id="Version-4-Prototype" stroke="none" stroke-width="1" fill="none" fill-rule="evenodd">
        <g id="02Learn00" transform="translate(-167.000000, -1693.000000)" fill="#000000">
            <g id="ic_network-type" transform="translate(167.000000, 1693.000000)">
                <path d="M11.5,7 C10.1192881,7 9,8.11928813 9,9.5 C9,10.8807119 10.1192881,12 11.5,12 C12.8807119,12 14,10.8807119 14,9.5 C14,8.11928813 12.8807119,7 11.5,7 L11.5,7 Z M11.5,11 C10.6715729,11 10,10.3284271 10,9.5 C10,8.67157288 10.6715729,8 11.5,8 C12.3284271,8 13,8.67157288 13,9.5 C13,10.3284271 12.3284271,11 11.5,11 Z" id="Shape" fill-rule="nonzero"></path>
                <path d="M14.105,4.66 C13.9478031,4.57514942 13.75728,4.58060778 13.6051988,4.67431897 C13.4531176,4.76803015 13.3625831,4.9357572 13.3676988,5.11431897 C13.3728145,5.29288073 13.4728031,5.45514942 13.63,5.54 C15.0854044,6.32554407 15.9926184,7.84613138 15.9926184,9.5 C15.9926184,11.1538686 15.0854044,12.6744559 13.63,13.46 C13.4728031,13.5448506 13.3728145,13.7071193 13.3676988,13.885681 C13.3625831,14.0642428 13.4531176,14.2319698 13.6051988,14.325681 C13.75728,14.4193922 13.9478031,14.4248506 14.105,14.34 C15.8838276,13.3798906 16.9926447,11.521395 16.9926447,9.5 C16.9926447,7.47860502 15.8838276,5.62010942 14.105,4.66 L14.105,4.66 Z" id="Path"></path>
                <path d="M9.365,13.46 C7.90959561,12.6744559 7.00238158,11.1538686 7.00238158,9.5 C7.00238158,7.84613138 7.90959561,6.32554407 9.365,5.54 C9.60800529,5.40883237 9.69866763,5.10550529 9.5675,4.8625 C9.43633237,4.61949471 9.13300529,4.52883237 8.89,4.66 C7.11117241,5.62010942 6.00235526,7.47860502 6.00235526,9.5 C6.00235526,11.521395 7.11117241,13.3798906 8.89,14.34 C9.13300529,14.4711676 9.43633237,14.3805053 9.5675,14.1375 C9.69866763,13.8944947 9.60800529,13.5911676 9.365,13.46 L9.365,13.46 Z" id="Path"></path>
                <path d="M16.335,2.5 C16.1071825,2.34259885 15.7949012,2.39968254 15.6375,2.6275 C15.4800988,2.85531746 15.5371825,3.16759885 15.765,3.325 C17.7893746,4.72574752 18.9974546,7.0307555 18.9974546,9.4925 C18.9974546,11.9542445 17.7893746,14.2592525 15.765,15.66 C15.5330404,15.8174012 15.4725989,16.1330404 15.63,16.365 C15.7874012,16.5969596 16.1030404,16.6574011 16.335,16.5 C18.6378388,14.9137305 20.0131746,12.2963043 20.0131746,9.5 C20.0131746,6.70369572 18.6378388,4.08626953 16.335,2.5 Z" id="Path"></path>
                <path d="M4,9.5 C3.99975714,7.03689987 5.20893247,4.73068293 7.235,3.33 C7.38326522,3.22817931 7.46594724,3.05499455 7.45190054,2.87568276 C7.43785385,2.69637097 7.32921246,2.53817386 7.16690054,2.46068276 C7.00458863,2.38319166 6.81326522,2.39817931 6.665,2.5 C4.36216118,4.08626953 2.98682538,6.70369572 2.98682538,9.5 C2.98682538,12.2963043 4.36216118,14.9137305 6.665,16.5 C6.81237206,16.6018207 7.00287014,16.6172848 7.16473548,16.5405672 C7.32660081,16.4638496 7.4352422,16.3066055 7.44973548,16.1280672 C7.46422876,15.9495289 7.38237206,15.7768207 7.235,15.675 C5.20747747,14.2733122 3.99811421,11.9648677 4,9.5 L4,9.5 Z" id="Path"></path>
                <path d="M18.5,0.38 C18.3579869,0.271033995 18.1686288,0.246108326 18.0032549,0.314612252 C17.837881,0.383116177 17.7216157,0.534642321 17.6982549,0.712112252 C17.6748941,0.889582182 17.7479869,1.066034 17.89,1.175 C20.4776937,3.16235042 21.9944747,6.23972197 21.9944747,9.5025 C21.9944747,12.765278 20.4776937,15.8426496 17.89,17.83 C17.6912556,18.0040353 17.6621903,18.3026492 17.8236432,18.5117439 C17.9850961,18.7208386 18.2813503,18.7682564 18.5,18.62 C21.3336834,16.4433465 22.9946021,13.0731754 22.9946021,9.5 C22.9946021,5.92682463 21.3336834,2.5566535 18.5,0.38 Z" id="Path"></path>
                <path d="M1,9.5 C0.988157661,6.2325084 2.50971338,3.14867407 5.11,1.17 C5.26394674,1.06561575 5.34722745,0.884404989 5.32618617,0.699599862 C5.30514489,0.514794736 5.18325973,0.356943463 5.00978776,0.289837985 C4.83631579,0.222732507 4.63993186,0.257465335 4.5,0.38 C1.6643954,2.55652028 0.00214208296,5.92788198 0.00214208296,9.5025 C0.00214208296,13.077118 1.6643954,16.4484797 4.5,18.625 C4.71953319,18.7934468 5.03405314,18.7520332 5.20249998,18.5325 C5.37094682,18.3129668 5.32953317,17.9984469 5.11,17.83 C2.50971338,15.8513259 0.988157661,12.7674916 1,9.5 Z" id="Path"></path>
            </g>
        </g>
    </g>
</svg>