<?xml version="1.0" encoding="UTF-8"?>
<svg width="18px" height="18px" viewBox="0 0 18 18" version="1.1" xmlns="http://www.w3.org/2000/svg">
    <!-- Generator: Sketch 53.2 (72643) - https://sketchapp.com -->
    <title>ic_stats</title>
    <desc>Created with Sketch.</desc>
    <g id="Version-4-Prototype" stroke="none" stroke-width="1" fill="none" fill-rule="evenodd">
        <g id="02Learn00" transform="translate(-169.000000, -1357.000000)" fill="#000000">
            <g id="ic_stats" transform="translate(169.000000, 1357.000000)">
                <path d="M17.4375,0 L0.5625,0 C0.251839828,-1.90224492e-17 3.80448985e-17,0.251839828 0,0.5625 L0,17.4375 C3.80448985e-17,17.7481602 0.251839828,18 0.5625,18 L17.4375,18 C17.7481602,18 18,17.7481602 18,17.4375 L18,0.5625 C18,0.251839828 17.7481602,1.90224492e-17 17.4375,0 Z M16.875,16.875 L1.125,16.875 L1.125,1.125 L16.875,1.125 L16.875,16.875 Z" id="Shape" fill-rule="nonzero"></path>
                <path d="M11.086875,7.711875 L14.0625,4.730625 L14.0625,7.3125 L15.1875,7.3125 L15.1875,3.375 C15.1875,3.06433983 14.9356602,2.8125 14.625,2.8125 L10.6875,2.8125 L10.6875,3.9375 L13.269375,3.9375 L10.29375,6.913125 L11.086875,7.711875 Z" id="Path"></path>
                <path d="M3.375,15.1875 L7.3125,15.1875 L7.3125,14.0625 L4.730625,14.0625 L7.70625,11.086875 L6.913125,10.29375 L3.9375,13.269375 L3.9375,10.6875 L2.8125,10.6875 L2.8125,14.625 C2.8125,14.9356602 3.06433983,15.1875 3.375,15.1875 Z" id="Path"></path>
            </g>
        </g>
    </g>
</svg>