<?xml version="1.0" encoding="UTF-8"?>
<svg width="13px" height="22px" viewBox="0 0 13 22" version="1.1" xmlns="http://www.w3.org/2000/svg" xmlns:xlink="http://www.w3.org/1999/xlink">
    <!-- Generator: Sketch 53.2 (72643) - https://sketchapp.com -->
    <title>ic_towers</title>
    <desc>Created with Sketch.</desc>
    <g id="Version-4-Prototype" stroke="none" stroke-width="1" fill="none" fill-rule="evenodd">
        <g id="02Learn00" transform="translate(-173.000000, -611.000000)" fill="#000000">
            <g id="ic_towers" transform="translate(173.000000, 611.000000)">
                <g id="Group">
                    <path d="M6.68486791,10.0626966 L6.68486791,6.09463254 C7.33310096,6.00220496 7.83534823,5.4411456 7.83534823,4.75770123 C7.83534823,4.00996911 7.23623308,3.40146228 6.5,3.40146228 C5.76376692,3.40146228 5.16465109,4.00996908 5.16465109,4.75770123 C5.16465109,5.44828889 5.67751567,6.0133304 6.33559669,6.09671036 L6.33559669,10.0629561 L2.34830978,21.5804672 C2.31624777,21.6729382 2.36417065,21.7740672 2.45506972,21.8066225 C2.47434135,21.8135503 2.4937831,21.8166667 2.51305405,21.8166667 C2.5850231,21.8166667 2.65255784,21.7709508 2.67779832,21.6982215 L3.49913171,19.3256247 L9.96485049,20.6414294 L10.322201,21.6770951 C10.3539227,21.7695661 10.4542014,21.8190906 10.5447601,21.785843 C10.6356592,21.7536346 10.683582,21.6525056 10.6516895,21.5600347 L6.68486791,10.0626966 Z M6.50989134,10.6283874 L8.21772701,15.5779147 L5.1701295,14.4985696 L6.50989134,10.6283874 Z M5.5139223,4.75770119 C5.5139223,4.20530062 5.95630974,3.7561069 6.5,3.7561069 C7.04369026,3.7561069 7.48607698,4.20530062 7.48607698,4.75770119 C7.48607698,5.30975555 7.04369023,5.75894931 6.5,5.75894931 C5.95630977,5.75894931 5.5139223,5.30975559 5.5139223,4.75770119 Z M5.05439567,14.8328671 L8.1012252,15.9120401 L3.71497476,18.7020967 L5.05439567,14.8328671 Z M3.84925566,19.0352682 L8.40973672,16.1344719 L9.83063369,20.2524545 L3.84925566,19.0352682 Z" id="Shape" fill-rule="nonzero"></path>
                    <path d="M4.18744192,7.24367802 C4.23178322,7.24367802 4.27595372,7.22670733 4.31006203,7.19276661 C4.37879043,7.12384666 4.37947301,7.01163485 4.31176742,6.94202186 C3.74369006,6.35671953 3.43074427,5.58128043 3.43074427,4.75908664 C3.43074427,4.03732912 3.68041873,3.33081034 4.13406197,2.76940499 C4.19511614,2.69355823 4.18437211,2.58169278 4.10967418,2.51969912 C4.03514706,2.45770565 3.9251472,2.46878826 3.86392222,2.54428885 C3.35928699,3.16907294 3.08147302,3.95559479 3.08147302,4.75908664 C3.08147302,5.67513683 3.4300617,6.53889053 4.06311642,7.19068882 C4.09722477,7.22601495 4.14224796,7.24367802 4.18744192,7.24367802 Z" id="Path"></path>
                    <path d="M9.56789196,4.75908664 C9.56789196,5.48049762 9.31838693,6.18493825 8.86508462,6.742534 C8.80368952,6.81803492 8.81426343,6.92990056 8.88861971,6.9922402 C8.92119414,7.01960061 8.96058876,7.03276119 8.99964307,7.03276119 C9.04995321,7.03276119 9.09992308,7.01094181 9.13454317,6.96834303 C9.63917771,6.34736835 9.91716317,5.56292502 9.91716317,4.75908664 C9.91716317,3.84234374 9.56857381,2.97893622 8.93568989,2.32713807 C8.86798431,2.25787159 8.75713175,2.25683271 8.68874431,2.32540645 C8.62001523,2.39432673 8.61933334,2.50653854 8.68703893,2.57649773 C9.2551156,3.16110758 9.56789196,3.93620011 9.56789196,4.75908664 Z" id="Path"></path>
                    <path d="M2.99227937,8.26085689 C3.02655781,8.29618302 3.07158168,8.31384609 3.11677499,8.31384609 C3.16094549,8.31384609 3.20528679,8.2968754 3.23922499,8.26293468 C3.30795339,8.19436094 3.30897688,8.08180292 3.24127129,8.01218994 C2.39469743,7.1387389 1.92860478,5.98337256 1.92860478,4.75908664 C1.92860478,3.68129905 2.30141112,2.63017931 2.97829469,1.79932724 C3.03968979,1.724173 3.02945753,1.61230758 2.95510052,1.54996772 C2.88091505,1.48693519 2.7709145,1.49767141 2.70917844,1.57351836 C1.98062027,2.46740314 1.57933353,3.59887213 1.57933353,4.75908679 C1.57933353,6.07722892 2.08106972,7.32056369 2.99227937,8.26085689 Z" id="Path"></path>
                    <path d="M11.0700315,4.75908664 C11.0700315,5.83687423 10.6982486,6.88695487 10.0232399,7.71607551 C9.96167394,7.79157643 9.97224789,7.90309516 10.0464347,7.96578171 C10.0790078,7.99314142 10.1185732,8.0063027 10.1576275,8.0063027 C10.2079377,8.0063027 10.2579075,7.98448332 10.2923568,7.94188454 C11.0190381,7.04938498 11.4193027,5.91930126 11.4193027,4.75908664 C11.4193027,3.43748075 10.9173957,2.1938 10.0061861,1.25662368 C9.93813885,1.18701084 9.82762791,1.18631814 9.75924047,1.25523834 C9.69051139,1.32381227 9.6898295,1.43637036 9.75753509,1.5059832 C10.6039375,2.37631735 11.0700315,3.53168332 11.0700315,4.75908664 Z" id="Path"></path>
                    <path d="M1.00682154,7.22151247 C0.666930261,6.44538103 0.494682211,5.61695277 0.494682211,4.75908664 C0.494682211,4.05499219 0.611674411,3.36717539 0.842418561,2.71329909 C1.07810834,2.03829666 1.42533329,1.41940007 1.8743721,0.87357952 C1.93610885,0.798425393 1.92638763,0.686559903 1.85237228,0.623873653 C1.77818611,0.561187403 1.66818625,0.57157738 1.60627939,0.646385263 C1.13063564,1.22441477 0.762775325,1.87967633 0.513441789,2.59416065 C0.269224728,3.28578723 0.145410994,4.01412502 0.145410994,4.75908664 C0.145410994,5.6668249 0.327891308,6.54373918 0.687224706,7.36489409 C0.994372131,8.07626189 1.42635646,8.7200945 1.97123998,9.27907497 C2.0055191,9.31405493 2.05037217,9.331718 2.09539532,9.331718 C2.13973662,9.331718 2.18424805,9.31474731 2.21818624,9.28046042 C2.28674384,9.21154047 2.28742637,9.09932866 2.2195507,9.02971568 C1.70485264,8.50190429 1.29691481,7.89374403 1.00682154,7.22151247 Z" id="Path"></path>
                    <path d="M12.3127753,2.15050847 C12.0059692,1.43948739 11.5741549,0.795308433 11.0289301,0.235981057 C10.9612246,0.166714497 10.850372,0.165329193 10.7819846,0.234595717 C10.7134263,0.30351596 10.7127444,0.415727767 10.7806208,0.485340643 C11.295489,1.01384441 11.7034265,1.62165828 11.9931788,2.29354382 C12.3330704,3.06967544 12.5053181,3.89844954 12.5053181,4.756316 C12.5053181,5.46041045 12.3883259,6.14857342 12.1575814,6.8017572 C11.9217208,7.477452 11.5744966,8.09634885 11.125798,8.6414764 C11.0640626,8.71663045 11.0737825,8.82814988 11.1477985,8.89118259 C11.1805424,8.91888917 11.2202786,8.93239596 11.2596746,8.93239596 C11.3096431,8.93239596 11.3592713,8.91092349 11.3938914,8.86867087 C11.8691942,8.29133426 12.2370538,7.63572652 12.4865575,6.92089548 C12.7307756,6.22961544 12.8545893,5.50162382 12.8545893,4.75631603 C12.8545894,3.84857785 12.672108,2.97131703 12.3127753,2.15050847 Z" id="Path"></path>
                </g>
            </g>
        </g>
    </g>
</svg>